<svg width="124" height="29" viewBox="0 0 124 29" fill="none" xmlns="http://www.w3.org/2000/svg">
<path d="M43.5227 13.1051C42.9943 11.0682 41.4006 9.73864 38.571 9.73864C35.6136 9.73864 33.517 11.2983 33.517 13.6165C33.517 15.4744 34.642 16.7102 37.0966 17.2557L39.3125 17.7415C40.5739 18.0227 41.1619 18.5852 41.1619 19.4034C41.1619 20.4176 40.0795 21.2102 38.4091 21.2102C36.8835 21.2102 35.9034 20.554 35.5966 19.267L33.1335 19.642C33.5597 21.9602 35.4858 23.2642 38.4261 23.2642C41.5881 23.2642 43.7784 21.5852 43.7784 19.2159C43.7784 17.3665 42.6023 16.2244 40.1989 15.6705L38.1193 15.1932C36.679 14.8523 36.0568 14.3665 36.0653 13.4801C36.0568 12.4744 37.1477 11.7585 38.5966 11.7585C40.1818 11.7585 40.9148 12.6364 41.2131 13.5142L43.5227 13.1051ZM46.5803 23H49.1286V18.3551L50.3984 17.0852L54.8473 23H57.9751L52.3161 15.5256L57.6172 9.90909H54.5661L49.3501 15.4489H49.1286V5.54545H46.5803V23ZM59.9396 23H62.4879V9.90909H59.9396V23ZM61.2266 7.8892C62.1044 7.8892 62.8374 7.20739 62.8374 6.37216C62.8374 5.53693 62.1044 4.84659 61.2266 4.84659C60.3402 4.84659 59.6158 5.53693 59.6158 6.37216C59.6158 7.20739 60.3402 7.8892 61.2266 7.8892ZM68.4645 15.2273C68.4645 13.1392 69.7429 11.946 71.5156 11.946C73.2457 11.946 74.294 13.0795 74.294 14.9801V23H76.8423V14.6733C76.8423 11.4347 75.0611 9.73864 72.3849 9.73864C70.4162 9.73864 69.1293 10.6506 68.5241 12.0398H68.3622V9.90909H65.9162V23H68.4645V15.2273ZM86.3707 9.90909H83.6861V6.77273H81.1378V9.90909H79.2202V11.9545H81.1378V19.6847C81.1293 22.0625 82.9446 23.2131 84.956 23.1705C85.7656 23.1619 86.3111 23.0085 86.6094 22.8977L86.1491 20.7926C85.9787 20.8267 85.6634 20.9034 85.2543 20.9034C84.4276 20.9034 83.6861 20.6307 83.6861 19.1562V11.9545H86.3707V9.90909ZM94.6911 23.2642C97.5462 23.2642 99.5661 21.858 100.146 19.7273L97.7337 19.2926C97.2734 20.5284 96.1655 21.1591 94.7166 21.1591C92.5348 21.1591 91.0689 19.7443 91.0007 17.2216H100.308V16.3182C100.308 11.5881 97.478 9.73864 94.5121 9.73864C90.8643 9.73864 88.4609 12.517 88.4609 16.5398C88.4609 20.6051 90.8303 23.2642 94.6911 23.2642ZM91.0092 15.3125C91.1115 13.4545 92.4581 11.8438 94.5291 11.8438C96.5064 11.8438 97.8018 13.3097 97.8104 15.3125H91.0092ZM112.945 13.1051C112.416 11.0682 110.822 9.73864 107.993 9.73864C105.036 9.73864 102.939 11.2983 102.939 13.6165C102.939 15.4744 104.064 16.7102 106.518 17.2557L108.734 17.7415C109.996 18.0227 110.584 18.5852 110.584 19.4034C110.584 20.4176 109.501 21.2102 107.831 21.2102C106.305 21.2102 105.325 20.554 105.018 19.267L102.555 19.642C102.982 21.9602 104.908 23.2642 107.848 23.2642C111.01 23.2642 113.2 21.5852 113.2 19.2159C113.2 17.3665 112.024 16.2244 109.621 15.6705L107.541 15.1932C106.101 14.8523 105.479 14.3665 105.487 13.4801C105.479 12.4744 106.57 11.7585 108.018 11.7585C109.604 11.7585 110.337 12.6364 110.635 13.5142L112.945 13.1051ZM122.113 9.90909H119.428V6.77273H116.88V9.90909H114.962V11.9545H116.88V19.6847C116.871 22.0625 118.687 23.2131 120.698 23.1705C121.508 23.1619 122.053 23.0085 122.352 22.8977L121.891 20.7926C121.721 20.8267 121.406 20.9034 120.996 20.9034C120.17 20.9034 119.428 20.6307 119.428 19.1562V11.9545H122.113V9.90909Z" fill="white"/>
<ellipse rx="5.44611" ry="5.44914" transform="matrix(0.780095 -0.625661 0.623729 0.781641 16.3527 9.6668)" fill="#F8F667"/>
<path d="M12.9538 5.40753C11.8271 6.31123 11.1045 7.62667 10.9452 9.06445C10.7858 10.5022 11.2027 11.9446 12.1041 13.0742C13.0056 14.2039 14.3177 14.9282 15.7518 15.088C17.1859 15.2477 18.6246 14.8298 19.7514 13.9261L16.3526 9.6668L12.9538 5.40753Z" fill="#AC8DF8"/>
<path d="M21.7629 15.091C21.7629 16.5236 21.4814 17.9421 20.9346 19.2657C20.3877 20.5892 19.5862 21.7918 18.5758 22.8048C17.5653 23.8178 16.3658 24.6214 15.0456 25.1696C13.7254 25.7179 12.3104 26 10.8814 26V15.091H21.7629Z" fill="#86D6E9"/>
<path d="M10.8816 26C9.45265 26 8.03767 25.7179 6.71748 25.1696C5.39728 24.6214 4.19772 23.8178 3.18728 22.8048C2.17685 21.7918 1.37533 20.5892 0.828484 19.2657C0.281639 17.9421 0.000183105 16.5236 0.000183105 15.091L10.8816 15.091V26Z" fill="#AC8DF8"/>
</svg>
