<svg width="41" height="53" viewBox="0 0 41 53" fill="none" xmlns="http://www.w3.org/2000/svg">
<path d="M38.9137 26.5269C38.2575 25.8711 37.4373 25.4886 36.6171 25.3793C36.7812 24.1223 36.3984 22.8654 35.4689 21.8817C34.8674 21.2806 34.0472 20.898 33.227 20.7341C33.2817 20.5155 33.2817 20.3515 33.2817 20.1329C33.2817 19.0399 32.8443 17.9469 32.0788 17.1818C31.696 16.7993 31.2586 16.526 30.7665 16.3074L35.1955 11.8808C36.8359 10.2413 36.8359 7.61813 35.1955 5.97864C33.5551 4.33915 30.9305 4.33915 29.2901 5.97864L13.8159 21.4445C13.2144 20.2422 12.2302 18.5481 10.9726 17.0179C10.1524 15.9795 9.05878 14.9958 7.74648 14.0668C5.83271 12.7006 3.31746 12.7006 1.45836 14.0668C-0.0726578 15.1598 -0.455412 17.1818 0.583494 18.7667L2.88002 22.3189C4.08297 24.177 4.68444 26.363 4.62976 28.6036L4.46572 35.3802C4.46572 36.036 4.19233 36.6371 3.70021 37.129L0.583494 40.244C0.0913804 40.7358 0.0913804 41.5556 0.583494 42.1021C0.85689 42.3753 1.18497 42.4846 1.51304 42.4846C1.84112 42.4846 2.16919 42.3753 2.44259 42.1021L5.55931 38.987C6.48886 38.058 7.03565 36.8011 7.09033 35.4348L7.25437 28.6583C7.30905 25.9258 6.54354 23.1933 5.0672 20.898L2.77066 17.3458C2.49727 16.9632 2.60663 16.4714 2.98938 16.1981C3.97361 15.4877 5.28591 15.4877 6.21546 16.1981C7.30905 16.9632 8.23859 17.8376 8.89474 18.6574C10.8632 21.1166 12.1755 24.177 12.1755 24.177C12.3395 24.5595 12.7223 24.8874 13.1051 24.9421C13.5425 25.0514 13.9799 24.8874 14.308 24.5595L31.0945 7.78208C31.696 7.18093 32.6802 7.18093 33.2817 7.78208C33.8832 8.38323 33.8832 9.36692 33.2817 9.96807L20.5414 22.8654C19.5025 23.9037 19.1198 25.3246 19.3932 26.6362C20.5961 32.2105 16.3311 34.779 16.1671 34.8883C15.5656 35.2709 15.3469 36.036 15.675 36.6918C15.8937 37.129 16.3311 37.3476 16.8232 37.3476C17.042 37.3476 17.2607 37.2929 17.4794 37.1836C19.1198 36.2546 21.6897 33.686 22.1818 29.7513C22.6192 29.9152 23.0567 29.9699 23.5488 29.9699C23.7675 29.9699 23.9862 29.9152 24.1503 29.9152C24.3143 30.7349 24.6971 31.5 25.2985 32.1558C26.1187 32.9756 27.1576 33.3581 28.2512 33.3581C28.4153 33.3581 28.5793 33.3035 28.798 33.3035C28.9074 34.1232 29.2901 34.943 29.9463 35.5988C30.3837 36.036 30.9305 36.3639 31.4773 36.5825C29.2901 39.6428 26.6655 42.43 24.6971 44.3974C22.9473 46.0915 20.5414 46.802 18.1355 46.2555L16.7139 45.9276C16.2764 45.8183 15.839 45.9822 15.5109 46.2555L11.1366 50.6274C10.6445 51.1193 10.6445 51.939 11.1366 52.4855C11.41 52.7588 11.7381 52.8681 12.0661 52.8681C12.3942 52.8681 12.7223 52.7588 12.9957 52.4855L16.8232 48.66L17.5341 48.824C20.7602 49.5891 24.1503 48.6054 26.5015 46.3101C28.962 43.9055 32.2975 40.2986 34.758 36.4185C35.1408 36.1999 35.5236 35.9813 35.797 35.6534L38.9684 32.4837C39.7339 31.7186 40.1713 30.6257 40.1713 29.5327C40.1713 28.385 39.7339 27.3467 38.9137 26.5269ZM24.5877 26.9095C23.9862 27.5106 23.002 27.5106 22.4005 26.9095C21.7991 26.3083 21.7991 25.3246 22.4005 24.7235L28.0325 19.0946C28.634 18.4934 29.6182 18.4934 30.2197 19.0946C30.4931 19.3678 30.6571 19.805 30.6571 20.1876C30.6571 20.6248 30.4931 21.0073 30.2197 21.2806L24.5877 26.9095ZM29.2901 30.2978C28.6886 30.8989 27.7044 30.8989 27.1029 30.2978C26.5015 29.6966 26.5015 28.7129 27.1029 28.1118L31.4226 23.7944C31.7507 23.4665 32.1334 23.3572 32.5162 23.3572C32.8989 23.3572 33.3364 23.5212 33.6098 23.7944C34.2113 24.3956 34.2113 25.3793 33.6098 25.9804L29.2901 30.2978ZM37.0546 30.6257L33.8832 33.7953C33.2817 34.3965 32.2975 34.3965 31.696 33.7953C31.0945 33.1942 31.0945 32.2105 31.696 31.6093L34.8674 28.4397C35.4689 27.8385 36.4531 27.8385 37.0546 28.4397C37.328 28.7129 37.492 29.1501 37.492 29.5327C37.5467 29.9152 37.3827 30.2978 37.0546 30.6257Z" fill="white"/>
<path d="M12.9957 7.1262C13.7065 7.1262 14.308 6.52504 14.308 5.81458V2.20762C14.308 1.49716 13.7065 0.895996 12.9957 0.895996C12.2848 0.895996 11.6833 1.49716 11.6833 2.20762V5.81458C11.6833 6.52504 12.2848 7.1262 12.9957 7.1262Z" fill="#AC8DF8"/>
<path d="M6.37949 9.09312C6.65289 9.36636 6.98096 9.47566 7.30904 9.47566C7.63711 9.47566 7.96519 9.36636 8.23858 9.09312C8.73069 8.60129 8.73069 7.78156 8.23858 7.23508L5.66866 4.66661C5.17655 4.17477 4.30169 4.17477 3.80957 4.66661C3.31746 5.15844 3.31746 5.97817 3.80957 6.52465L6.37949 9.09312Z" fill="#AC8DF8"/>
<path d="M18.6823 9.47566C19.0104 9.47566 19.3385 9.36636 19.6119 9.09312L22.1818 6.52465C22.6739 6.03281 22.6739 5.21309 22.1818 4.66661C21.6897 4.17477 20.8148 4.17477 20.3227 4.66661L17.7528 7.23508C17.2606 7.72691 17.2606 8.54664 17.7528 9.09312C18.0262 9.36636 18.3542 9.47566 18.6823 9.47566Z" fill="#AC8DF8"/>
</svg>
