<svg width="24" height="24" viewBox="0 0 24 24" fill="none" xmlns="http://www.w3.org/2000/svg">
<ellipse rx="5.44611" ry="5.44914" transform="matrix(0.780095 -0.625661 0.623729 0.781641 16.3527 7.6668)" fill="#F8F667"/>
<path d="M12.9538 3.40753C11.8271 4.31123 11.1045 5.62667 10.9452 7.06445C10.7858 8.50223 11.2027 9.94459 12.1041 11.0742C13.0056 12.2039 14.3177 12.9282 15.7518 13.088C17.1859 13.2477 18.6246 12.8298 19.7514 11.9261L16.3526 7.6668L12.9538 3.40753Z" fill="#AC8DF8"/>
<path d="M21.7629 13.091C21.7629 14.5236 21.4814 15.9421 20.9346 17.2657C20.3877 18.5892 19.5862 19.7918 18.5758 20.8048C17.5653 21.8178 16.3658 22.6214 15.0456 23.1696C13.7254 23.7179 12.3104 24 10.8814 24V13.091H21.7629Z" fill="#86D6E9"/>
<path d="M10.8816 24C9.45265 24 8.03767 23.7179 6.71748 23.1696C5.39728 22.6214 4.19772 21.8178 3.18728 20.8048C2.17685 19.7918 1.37533 18.5892 0.828484 17.2657C0.281639 15.9421 0.000183105 14.5236 0.000183105 13.091L10.8816 13.091V24Z" fill="#AC8DF8"/>
</svg>
