<svg version="1" xmlns="http://www.w3.org/2000/svg" width="844" height="844" viewBox="0 0 633.000000 633.000000"><path d="M0 316.5V633h633V0H0v316.5zM220.6 195l118.2 21H536v44H377v115h114v-32h-38v-38h83v114H333.1l-115.3 20.5c-63.4 11.3-116.5 20.8-118 21.1l-2.8.6V172.8l2.8.6c1.5.3 55.9 10 120.8 21.6z"/><path d="M142 317.6v88.6l2.8-.6c1.5-.4 20.9-3.8 43.1-7.6 22.3-3.9 40.6-7.2 40.8-7.4.2-.2-4.8-10.8-11.1-23.5-6.4-12.7-11.6-23.3-11.6-23.6 0-.3 9.9-.5 22-.5h22l10.1 20.2c5.6 11.2 10.2 20.4 10.3 20.4 0 .1 5.4-.8 11.9-1.9l11.7-2V255.2l-2.7-.6c-4.9-1-147.5-25.6-148.4-25.6-.5 0-.9 37.8-.9 88.6z"/></svg>