<svg width="16" height="16" viewBox="0 0 16 16" fill="none" xmlns="http://www.w3.org/2000/svg">
<path fill-rule="evenodd" clip-rule="evenodd" d="M13.2 2H5.07692C4.63077 2 4.26154 2.36923 4.26154 2.81538V5.24615H1.81538C1.36923 5.24615 1 5.61538 1 6.06154V14.1846C1 14.6308 1.36923 15 1.81538 15H9.93846C10.3846 15 10.7538 14.6308 10.7538 14.1846V11.7385H13.2C13.6462 11.7385 14.0154 11.3692 14.0154 10.9231V2.8C14 2.35385 13.6462 2 13.2 2ZM9.53846 13.7692H2.23077V6.46154H4.26154V10.9231C4.26154 11.3692 4.63077 11.7385 5.07692 11.7385H9.53846V13.7692ZM12.7846 10.5231H5.47692V3.21538H12.7846V10.5231Z" fill="white"/>
</svg>
