<svg width="19" height="19" viewBox="0 0 19 19" fill="none" xmlns="http://www.w3.org/2000/svg">
<path d="M11.5094 17.596C11.5097 17.6554 11.5236 17.714 11.5502 17.7672C11.5768 17.8203 11.6154 17.8666 11.6628 17.9024C11.7102 17.9382 11.7652 17.9626 11.8236 17.9737C11.882 17.9848 11.9421 17.9822 11.9994 17.9662C14.0068 17.4012 15.7427 16.1301 16.8879 14.3869C18.033 12.6437 18.5103 10.5455 18.232 8.47837C17.9537 6.4112 16.9386 4.51404 15.3732 3.13585C13.8079 1.75766 11.7977 0.991129 9.71234 0.977243C7.62699 0.963357 5.60674 1.70305 4.0232 3.06028C2.43967 4.4175 1.39933 6.30097 1.09356 8.36425C0.787787 10.4275 1.23714 12.5319 2.35896 14.2902C3.48079 16.0485 5.19964 17.3425 7.19935 17.9343C7.25569 17.9507 7.31507 17.9539 7.37283 17.9435C7.43059 17.9331 7.48515 17.9094 7.53222 17.8743C7.5804 17.8388 7.61958 17.7924 7.64663 17.739C7.67369 17.6856 7.68786 17.6266 7.68801 17.5667V15.8354C7.15235 16.0013 6.57317 15.9524 6.07296 15.6989C5.57275 15.4453 5.19074 15.0072 5.00771 14.477C4.80047 13.829 4.4542 13.234 3.99312 12.7337C6.18609 13.2664 6.22736 14.6888 7.7213 14.0176C7.76529 13.517 7.93174 13.0349 8.20596 12.6139C6.51896 12.4141 4.73609 12.1478 4.73609 9.2179C4.7252 8.46021 5.00599 7.72734 5.52034 7.17098C5.28711 6.51307 5.31378 5.79093 5.5949 5.15203C5.5949 5.15203 6.23668 4.94694 7.692 5.9351C8.94231 5.59243 10.2618 5.59243 11.5121 5.9351C12.9687 4.94694 13.6078 5.15203 13.6078 5.15203C13.8891 5.79082 13.9163 6.51286 13.6837 7.17098C14.1995 7.72664 14.4813 8.45975 14.4706 9.2179C14.4706 12.1478 12.6878 12.4141 10.9941 12.5992C11.3581 13.1237 11.5414 13.7525 11.5161 14.3905L11.5094 17.596Z" fill="white" stroke="white" stroke-width="1.33149" stroke-linecap="round" stroke-linejoin="round"/>
</svg>
