<svg width="108" height="25" viewBox="0 0 108 25" fill="none" xmlns="http://www.w3.org/2000/svg">
<path d="M37.8699 11.3903C37.4101 9.6179 36.0234 8.46104 33.5613 8.46104C30.988 8.46104 29.1638 9.81813 29.1638 11.8352C29.1638 13.4519 30.1426 14.5271 32.2784 15.0018L34.2065 15.4245C35.304 15.6692 35.8157 16.1586 35.8157 16.8705C35.8157 17.753 34.8739 18.4427 33.4204 18.4427C32.093 18.4427 31.2402 17.8717 30.9732 16.7519L28.83 17.0782C29.2008 19.0953 30.8768 20.2299 33.4353 20.2299C36.1865 20.2299 38.0924 18.769 38.0924 16.7074C38.0924 15.0982 37.069 14.1045 34.9777 13.6224L33.1683 13.2071C31.915 12.9105 31.3737 12.4878 31.3811 11.7166C31.3737 10.8415 32.3229 10.2186 33.5836 10.2186C34.9629 10.2186 35.6007 10.9824 35.8602 11.7462L37.8699 11.3903ZM40.5303 20H42.7476V15.9584L43.8526 14.8534L47.7236 20H50.4452L45.5211 13.4964L50.1337 8.60935H47.4789L42.9404 13.4296H42.7476V4.81247H40.5303V20ZM52.1545 20H54.3719V8.60935H52.1545V20ZM53.2743 6.85181C54.0382 6.85181 54.6759 6.25855 54.6759 5.5318C54.6759 4.80505 54.0382 4.20438 53.2743 4.20438C52.5031 4.20438 51.8727 4.80505 51.8727 5.5318C51.8727 6.25855 52.5031 6.85181 53.2743 6.85181ZM59.5722 13.2368C59.5722 11.4199 60.6846 10.3817 62.227 10.3817C63.7324 10.3817 64.6446 11.368 64.6446 13.0217V20H66.8619V12.7548C66.8619 9.93678 65.312 8.46104 62.9835 8.46104C61.2704 8.46104 60.1506 9.25453 59.6241 10.4633H59.4832V8.60935H57.3549V20H59.5722V13.2368ZM75.1528 8.60935H72.8168V5.88034H70.5995V8.60935H68.9309V10.3891H70.5995V17.1153C70.592 19.1843 72.1716 20.1854 73.9217 20.1483C74.6262 20.1409 75.1008 20.0074 75.3604 19.911L74.9599 18.0793C74.8116 18.109 74.5372 18.1757 74.1813 18.1757C73.462 18.1757 72.8168 17.9384 72.8168 16.6555V10.3891H75.1528V8.60935ZM82.3924 20.2299C84.8767 20.2299 86.6342 19.0063 87.1385 17.1523L85.0399 16.7741C84.6394 17.8494 83.6753 18.3982 82.4147 18.3982C80.5162 18.3982 79.2407 17.1672 79.1814 14.9721H87.2794V14.186C87.2794 10.0703 84.8174 8.46104 82.2367 8.46104C79.0627 8.46104 76.9715 10.8786 76.9715 14.3788C76.9715 17.9162 79.0331 20.2299 82.3924 20.2299ZM79.1888 13.311C79.2778 11.6943 80.4495 10.2927 82.2515 10.2927C83.972 10.2927 85.0992 11.5683 85.1066 13.311H79.1888ZM98.2752 11.3903C97.8154 9.6179 96.4286 8.46104 93.9666 8.46104C91.3933 8.46104 89.569 9.81813 89.569 11.8352C89.569 13.4519 90.5479 14.5271 92.6837 15.0018L94.6118 15.4245C95.7093 15.6692 96.221 16.1586 96.221 16.8705C96.221 17.753 95.2792 18.4427 93.8257 18.4427C92.4983 18.4427 91.6455 17.8717 91.3785 16.7519L89.2353 17.0782C89.6061 19.0953 91.2821 20.2299 93.8405 20.2299C96.5918 20.2299 98.4976 18.769 98.4976 16.7074C98.4976 15.0982 97.4743 14.1045 95.383 13.6224L93.5736 13.2071C92.3203 12.9105 91.7789 12.4878 91.7864 11.7166C91.7789 10.8415 92.7282 10.2186 93.9888 10.2186C95.3682 10.2186 96.0059 10.9824 96.2655 11.7462L98.2752 11.3903ZM106.253 8.60935H103.917V5.88034H101.699V8.60935H100.031V10.3891H101.699V17.1153C101.692 19.1843 103.272 20.1854 105.022 20.1483C105.726 20.1409 106.201 20.0074 106.46 19.911L106.06 18.0793C105.912 18.109 105.637 18.1757 105.281 18.1757C104.562 18.1757 103.917 17.9384 103.917 16.6555V10.3891H106.253V8.60935Z" fill="white"/>
<ellipse rx="4.72165" ry="4.71465" transform="matrix(0.782922 -0.622119 0.627268 0.778804 14.2296 8.33299)" fill="#F8F667"/>
<path d="M11.2714 4.66211C10.2909 5.44116 9.66226 6.57516 9.52361 7.81463C9.38495 9.0541 9.74769 10.2975 10.532 11.2713C11.3164 12.2451 12.4581 12.8696 13.7059 13.0073C14.9538 13.145 16.2056 12.7847 17.1861 12.0057L14.2287 8.3339L11.2714 4.66211Z" fill="#AC8DF8"/>
<path d="M18.9363 13.0091C18.9363 14.2441 18.6914 15.467 18.2156 16.608C17.7398 17.749 17.0423 18.7857 16.1631 19.659C15.2839 20.5323 14.2402 21.225 13.0914 21.6976C11.9427 22.1702 10.7115 22.4135 9.46815 22.4135V13.0091H18.9363Z" fill="#86D6E9"/>
<path d="M9.46838 22.4135C8.225 22.4135 6.9938 22.1702 5.84508 21.6976C4.69635 21.225 3.65259 20.5323 2.77339 19.659C1.89419 18.7857 1.19677 17.749 0.720953 16.608C0.245134 15.467 0.000232697 14.2441 0.000232697 13.0091H9.46838V22.4135Z" fill="#AC8DF8"/>
</svg>
