<svg width="82" height="19" viewBox="0 0 82 19" fill="none" xmlns="http://www.w3.org/2000/svg">
<path d="M28.7811 8.45661C28.4317 7.1096 27.3778 6.23039 25.5066 6.23039C23.5509 6.23039 22.1645 7.26178 22.1645 8.79477C22.1645 10.0234 22.9084 10.8406 24.5316 11.2013L25.9969 11.5226C26.8311 11.7086 27.22 12.0806 27.22 12.6216C27.22 13.2923 26.5042 13.8164 25.3995 13.8164C24.3907 13.8164 23.7425 13.3825 23.5396 12.5314L21.9108 12.7794C22.1926 14.3124 23.4664 15.1747 25.4108 15.1747C27.5018 15.1747 28.9502 14.0644 28.9502 12.4976C28.9502 11.2746 28.1724 10.5194 26.5831 10.153L25.2079 9.83743C24.2554 9.61199 23.844 9.29073 23.8496 8.70459C23.844 8.03954 24.5654 7.56612 25.5235 7.56612C26.5718 7.56612 27.0565 8.14663 27.2538 8.72713L28.7811 8.45661ZM30.803 15H32.4882V11.9284L33.328 11.0886L36.27 15H38.3384L34.5961 10.0572L38.1017 6.34311H36.084L32.6347 10.0065H32.4882V3.45748H30.803V15ZM39.6375 15H41.3226V6.34311H39.6375V15ZM40.4885 5.00738C41.069 5.00738 41.5537 4.5565 41.5537 4.00417C41.5537 3.45184 41.069 2.99533 40.4885 2.99533C39.9024 2.99533 39.4233 3.45184 39.4233 4.00417C39.4233 4.5565 39.9024 5.00738 40.4885 5.00738ZM45.2749 9.85997C45.2749 8.47915 46.1203 7.69011 47.2926 7.69011C48.4367 7.69011 49.1299 8.4397 49.1299 9.69653V15H50.8151V9.49363C50.8151 7.35195 49.6371 6.23039 47.8674 6.23039C46.5655 6.23039 45.7145 6.83344 45.3143 7.75211H45.2072V6.34311H43.5897V15H45.2749V9.85997ZM57.1161 6.34311H55.3408V4.26906H53.6556V6.34311H52.3875V7.69575H53.6556V12.8076C53.65 14.38 54.8504 15.1409 56.1805 15.1127C56.7159 15.1071 57.0766 15.0056 57.2739 14.9324L56.9696 13.5403C56.8568 13.5628 56.6483 13.6135 56.3778 13.6135C55.8311 13.6135 55.3408 13.4332 55.3408 12.4582V7.69575H57.1161V6.34311ZM62.6182 15.1747C64.5063 15.1747 65.842 14.2448 66.2253 12.8358L64.6303 12.5483C64.3259 13.3656 63.5933 13.7826 62.6351 13.7826C61.1923 13.7826 60.2229 12.847 60.1779 11.1788H66.3324V10.5814C66.3324 7.4534 64.4612 6.23039 62.4999 6.23039C60.0877 6.23039 58.4983 8.06772 58.4983 10.7279C58.4983 13.4163 60.0651 15.1747 62.6182 15.1747ZM60.1835 9.91633C60.2511 8.68768 61.1416 7.62248 62.5112 7.62248C63.8187 7.62248 64.6754 8.59187 64.681 9.91633H60.1835ZM74.6891 8.45661C74.3397 7.1096 73.2858 6.23039 71.4146 6.23039C69.4589 6.23039 68.0725 7.26178 68.0725 8.79477C68.0725 10.0234 68.8164 10.8406 70.4396 11.2013L71.905 11.5226C72.7391 11.7086 73.128 12.0806 73.128 12.6216C73.128 13.2923 72.4122 13.8164 71.3075 13.8164C70.2987 13.8164 69.6506 13.3825 69.4477 12.5314L67.8189 12.7794C68.1007 14.3124 69.3744 15.1747 71.3188 15.1747C73.4098 15.1747 74.8582 14.0644 74.8582 12.4976C74.8582 11.2746 74.0805 10.5194 72.4911 10.153L71.1159 9.83743C70.1634 9.61199 69.752 9.29073 69.7576 8.70459C69.752 8.03954 70.4734 7.56612 71.4315 7.56612C72.4798 7.56612 72.9645 8.14663 73.1618 8.72713L74.6891 8.45661ZM80.7521 6.34311H78.9767V4.26906H77.2916V6.34311H76.0235V7.69575H77.2916V12.8076C77.2859 14.38 78.4864 15.1409 79.8165 15.1127C80.3519 15.1071 80.7126 15.0056 80.9099 14.9324L80.6055 13.5403C80.4928 13.5628 80.2843 13.6135 80.0137 13.6135C79.4671 13.6135 78.9767 13.4332 78.9767 12.4582V7.69575H80.7521V6.34311Z" fill="white"/>
<ellipse rx="3.58845" ry="3.58313" transform="matrix(0.782922 -0.622119 0.627268 0.778804 10.8143 6.33375)" fill="#F8F667"/>
<path d="M8.56627 3.54312C7.82114 4.13521 7.34334 4.99704 7.23796 5.93904C7.13259 6.88104 7.40827 7.82603 8.00437 8.56613C8.60047 9.30623 9.46814 9.78082 10.4165 9.88549C11.3649 9.99015 12.3163 9.71632 13.0614 9.12424L10.8138 6.33368L8.56627 3.54312Z" fill="#AC8DF8"/>
<path d="M14.3916 9.88707C14.3916 10.8257 14.2055 11.7551 13.8438 12.6222C13.4822 13.4894 12.9522 14.2773 12.284 14.941C11.6158 15.6047 10.8225 16.1312 9.9495 16.4903C9.07647 16.8495 8.14075 17.0344 7.19579 17.0344L7.19579 9.88707H14.3916Z" fill="#86D6E9"/>
<path d="M7.19593 17.0344C6.25097 17.0344 5.31526 16.8495 4.44222 16.4903C3.56919 16.1312 2.77593 15.6047 2.10774 14.941C1.43955 14.2773 0.909513 13.4894 0.54789 12.6222C0.186268 11.7551 0.000143051 10.8257 0.000143051 9.88707L7.19593 9.88707L7.19593 17.0344Z" fill="#AC8DF8"/>
</svg>
