<svg width="46" height="46" viewBox="0 0 46 46" fill="none" xmlns="http://www.w3.org/2000/svg">
<path d="M32.6 17.7599H13.4C12.5857 17.7599 11.9256 17.0998 11.9256 16.2856V1.47436C11.9256 0.66012 12.5857 0 13.4 0H32.6C33.4143 0 34.0744 0.66012 34.0744 1.47436V16.2856C34.0744 17.0999 33.4143 17.7599 32.6 17.7599ZM14 16H32V2H14V16Z" fill="white"/>
<path d="M18.2225 8.9402L20.7302 9.97029L20.3218 11.2722L16.1711 9.50409V8.3768L20.3219 6.60767L20.7457 7.91021L18.2225 8.9402Z" fill="#AC8DF8"/>
<path d="M23.7794 13.3234L20.6906 4.5354H22.2176L25.2893 13.3234H23.7794Z" fill="#AC8DF8"/>
<path d="M25.6695 11.2723L25.2385 9.97102L27.7527 8.94035L25.247 7.90977L25.668 6.60791L29.8289 8.37704V9.50424L25.6695 11.2723Z" fill="#AC8DF8"/>
<path d="M19.3944 46.0001H1.47436C0.66012 46.0001 0 45.34 0 44.5258V30.7019C0 29.8877 0.66012 29.2275 1.47436 29.2275H19.3944C20.2086 29.2275 20.8688 29.8877 20.8688 30.7019V44.5258C20.8688 45.34 20.2087 46.0001 19.3944 46.0001ZM2 44.0001H19V31.0001H2V44.0001Z" fill="white"/>
<path d="M5.97549 37.6702L8.31589 38.6316L7.93472 39.8467L4.06079 38.1965V37.1443L7.93482 35.4932L8.33044 36.7088L5.97549 37.6702Z" fill="white"/>
<path d="M11.1618 41.761L8.27893 33.5588H9.70405L12.5711 41.761H11.1618Z" fill="white"/>
<path d="M12.9259 39.8466L12.5236 38.6321L14.8704 37.6701L12.5316 36.7082L12.9245 35.4932L16.8081 37.1443V38.1964L12.9259 39.8466Z" fill="white"/>
<path d="M44.5256 46.0001H26.6056C25.7913 46.0001 25.1312 45.34 25.1312 44.5258V30.7019C25.1312 29.8877 25.7913 29.2275 26.6056 29.2275H44.5256C45.3399 29.2275 46 29.8877 46 30.7019V44.5258C46 45.34 45.3399 46.0001 44.5256 46.0001ZM27 44.0001H44V31.0001H27V44.0001Z" fill="white"/>
<path d="M31.1066 37.6702L33.4471 38.6316L33.0658 39.8467L29.1919 38.1965V37.1443L33.0659 35.4932L33.4615 36.7088L31.1066 37.6702Z" fill="white"/>
<path d="M36.293 41.761L33.41 33.5588H34.8352L37.7023 41.761H36.293Z" fill="white"/>
<path d="M38.0571 39.8466L37.6547 38.6321L40.0015 37.6701L37.6628 36.7082L38.0557 35.4932L41.9392 37.1443V38.1964L38.0571 39.8466Z" fill="white"/>
<path d="M24 16.2856H22V23.0382H24V16.2856Z" fill="white"/>
<path d="M36.8883 30.7017H35V24H11V30.7017H9.11176V23.0381C9.11176 22.2238 9.77187 21.5637 10.5861 21.5637H35.4139C36.2282 21.5637 36.8883 22.2238 36.8883 23.0381V30.7017Z" fill="white"/>
</svg>
