<svg width="48" height="48" viewBox="0 0 48 48" fill="none" xmlns="http://www.w3.org/2000/svg">
<path d="M18.731 24.9773H33.2756C33.8178 28.5296 36.8865 31.2625 40.5912 31.2625C44.6762 31.2625 48 27.942 48 23.8603C48 19.7786 44.6762 16.4581 40.5906 16.4581C36.8865 16.4581 33.8172 19.191 33.2751 22.7432H18.69C18.5613 21.8055 18.2956 20.8917 17.8945 20.0327L31.7615 12.029C33.1554 13.7627 35.2836 14.8054 37.5466 14.8054C38.8411 14.8054 40.1204 14.4619 41.2463 13.8118C44.7807 11.7715 45.996 7.2374 43.956 3.70471C42.6368 1.41978 40.1749 0 37.5315 0C36.2364 0 34.9572 0.343494 33.8313 0.99362C30.6249 2.84402 29.3355 6.74422 30.6451 10.0904L16.7101 18.1332C16.0028 17.2512 15.1314 16.4788 14.0943 15.8806C12.6666 15.0562 11.0441 14.6206 9.40299 14.6206C6.05112 14.6206 2.92961 16.4207 1.25592 19.3189C-1.33242 23.8 0.209238 29.5511 4.69206 32.1393C6.12023 32.9637 7.74223 33.3994 9.38332 33.3994C12.3374 33.3994 15.1123 31.9992 16.8753 29.6829L30.6451 37.6302C29.3361 40.9764 30.6249 44.8766 33.8313 46.727C34.9572 47.3771 36.2364 47.7206 37.5309 47.7206C40.1737 47.7206 42.6368 46.3008 43.9565 44.0153C45.9971 40.4821 44.7813 35.9485 41.2468 33.9082C40.1209 33.2581 38.8411 32.9146 37.5466 32.9146C35.2836 32.9146 33.1559 33.9579 31.7615 35.691L18.0051 27.7516C18.3979 26.8523 18.6344 25.9173 18.731 24.9773ZM40.5906 18.6922C43.4363 18.6922 45.7521 21.0107 45.7521 23.8603C45.7521 26.7099 43.4368 29.0283 40.5906 29.0283C37.7444 29.0283 35.4285 26.7099 35.4285 23.8603C35.4285 21.0107 37.7444 18.6922 40.5906 18.6922ZM34.9594 2.92557C35.7437 2.47316 36.6331 2.23411 37.5315 2.23411C39.372 2.23411 41.0873 3.22382 42.0075 4.8173C43.4335 7.28711 42.5862 10.4556 40.1187 11.8804C39.3344 12.3328 38.445 12.5719 37.5472 12.5719C35.7061 12.5719 33.9908 11.5822 33.0705 9.9887C31.6441 7.51834 32.4907 4.35037 34.9594 2.92557ZM15.5825 27.5885C14.3083 29.7946 11.9335 31.1653 9.38389 31.1653C8.13888 31.1653 6.90679 30.8341 5.82077 30.2074C2.4043 28.2352 1.2312 23.8497 3.20547 20.4315C4.47969 18.2253 6.85454 16.8547 9.40355 16.8547C10.6486 16.8547 11.8806 17.1859 12.9667 17.8126C16.3831 19.7842 17.5562 24.1697 15.5825 27.5885ZM37.5461 35.1487C38.445 35.1487 39.3344 35.3877 40.1181 35.8401C42.5862 37.2644 43.4329 40.4329 42.007 42.9033C41.0867 44.4968 39.372 45.4865 37.5309 45.4865C36.632 45.4865 35.7426 45.2474 34.9589 44.795C32.4907 43.3702 31.6435 40.2017 33.07 37.7319C33.9903 36.139 35.7055 35.1487 37.5461 35.1487Z" fill="white"/>
<path d="M43.9993 40.1836C43.9993 43.7165 41.115 46.5954 37.5383 46.5954C33.9617 46.5954 31.0773 43.7165 31.0773 40.1836C31.0773 36.6507 33.9617 33.7718 37.5383 33.7718C41.115 33.7718 43.9993 36.6507 43.9993 40.1836Z" stroke="#AC8DF8" stroke-width="2.80914"/>
</svg>
