<svg width="116" height="117" viewBox="0 0 116 117" fill="none" xmlns="http://www.w3.org/2000/svg">
<circle cx="37.0558" cy="79.2374" r="26.3636" transform="rotate(-38.6598 37.0558 79.2374)" fill="#F8F667"/>
<path d="M20.5867 58.6509C15.1268 63.0188 11.6257 69.3768 10.8535 76.3261C10.0814 83.2754 12.1015 90.2468 16.4694 95.7067C20.8373 101.167 27.1952 104.668 34.1445 105.44C41.0938 106.212 48.0652 104.192 53.5251 99.824L37.0559 79.2374L20.5867 58.6509Z" fill="#AC8DF8"/>
<path d="M10.5454 52.7273C10.5454 45.8031 11.9092 38.9467 14.559 32.5495C17.2088 26.1523 21.0927 20.3397 25.9888 15.4436C30.885 10.5474 36.6976 6.66351 43.0948 4.01372C49.492 1.36393 56.3484 9.91821e-05 63.2726 9.91821e-05L63.2726 52.7273L10.5454 52.7273Z" fill="#86D6E9"/>
</svg>
