<svg width="42" height="51" viewBox="0 0 42 51" fill="none" xmlns="http://www.w3.org/2000/svg">
<path d="M18.7546 33.6089L11.4614 26.3743C10.8937 25.8096 10.8847 24.888 11.4434 24.3124L12.9572 22.7551C13.5158 22.1814 14.4277 22.1723 14.9954 22.7351L19.7511 27.4507L29.9853 17.1033C30.5476 16.5332 31.4612 16.5332 32.0235 17.1033L33.5535 18.6515C34.1176 19.2216 34.1176 20.1414 33.5535 20.7115L20.8018 33.5998C20.2395 34.1699 19.3222 34.1736 18.7546 33.6089Z" fill="#AC8DF8"/>
<path d="M21.0018 51C20.6107 51 20.2179 50.8834 19.8809 50.6466C1.46512 37.7619 0 25.2213 0 10.1654C0 9.21096 0.670385 8.3895 1.59847 8.21282C11.5966 6.28211 19.7728 0.431679 19.8539 0.371571C20.5387 -0.123857 21.4613 -0.123857 22.1461 0.371571C22.2272 0.429857 30.4034 6.28211 40.4015 8.21282C41.3296 8.39132 42 9.21096 42 10.1654C42 25.2213 40.5349 37.7619 22.1191 50.6466C21.7857 50.8834 21.3929 51 21.0018 51ZM3.94302 11.7792C4.04754 25.4089 5.73972 35.4905 21.0018 46.5776C36.2639 35.4905 37.9561 25.4089 38.0606 11.7792C30.0754 9.91768 23.5536 6.04896 21.0018 4.38418C18.4482 6.04896 11.9264 9.91586 3.94302 11.7792Z" fill="white"/>
</svg>
