<svg width="113" height="112" viewBox="0 0 113 112" fill="none" xmlns="http://www.w3.org/2000/svg">
<circle cx="76.5057" cy="35.7781" r="25.4545" transform="rotate(-38.6598 76.5057 35.7781)" fill="#F8F667"/>
<path d="M60.6042 15.9013C55.3326 20.1186 51.9522 26.2573 51.2067 32.967C50.4611 39.6767 52.4116 46.4077 56.6288 51.6793C60.8461 56.9509 66.9848 60.3313 73.6945 61.0768C80.4042 61.8223 87.1352 59.8719 92.4068 55.6546L76.5055 35.778L60.6042 15.9013Z" fill="#AC8DF8"/>
<path d="M101.818 61.091C101.818 67.7765 100.501 74.3965 97.943 80.573C95.3845 86.7496 91.6346 92.3618 86.9073 97.0891C82.1799 101.816 76.5677 105.566 70.3912 108.125C64.2146 110.683 57.5946 112 50.9091 112L50.9091 61.091H101.818Z" fill="#86D6E9"/>
<path d="M50.9093 112C44.2238 112 37.6038 110.683 31.4272 108.125C25.2506 105.566 19.6385 101.816 14.9111 97.0891C10.1838 92.3618 6.43382 86.7496 3.8754 80.573C1.31698 74.3965 0.000175476 67.7765 0.000175476 61.091L50.9093 61.091L50.9093 112Z" fill="#AC8DF8"/>
</svg>
