<svg width="48" height="42" viewBox="0 0 48 42" fill="none" xmlns="http://www.w3.org/2000/svg">
<path d="M2.67737 31.2078C2.25923 31.2048 1.8475 31.1035 1.47473 30.9118C1.10196 30.7202 0.778359 30.4435 0.529503 30.1036C0.280646 29.7637 0.113353 29.3699 0.0408462 28.9534C-0.031661 28.5368 -0.00739591 28.1089 0.111724 27.7035L2.35053 20.1164C2.48773 19.6612 2.74029 19.2503 3.08311 18.9244C3.42593 18.5985 3.84709 18.369 4.30474 18.2587C4.76239 18.1484 5.24061 18.1611 5.69188 18.2957C6.14316 18.4302 6.55179 18.6818 6.87717 19.0255L12.2372 24.7943C12.5513 25.1449 12.7692 25.5725 12.8692 26.0346C12.9693 26.4967 12.948 26.9773 12.8076 27.4286C12.6671 27.8798 12.4124 28.286 12.0686 28.6068C11.7249 28.9277 11.3042 29.1519 10.8482 29.2573L3.28201 31.1251C3.08423 31.1758 2.88137 31.2036 2.67737 31.2078ZM5.19398 22.0504L3.51079 27.6043L9.21403 26.315L5.19398 22.0504Z" fill="#AC8DF8"/>
<path d="M17.1561 40.8286C14.613 39.9317 12.2702 38.5354 10.2622 36.7199C8.25426 34.9043 6.62073 32.7054 5.45547 30.2493L8.26624 28.8773C9.67276 31.8446 11.8741 34.3533 14.6199 36.1181C17.3657 37.8829 20.546 38.8331 23.7991 38.8607C27.0523 38.8882 30.2478 37.992 33.0225 36.274C35.7971 34.5559 38.0396 32.0849 39.4951 29.1418C39.6736 28.7997 39.9718 28.5373 40.3315 28.4058C40.6911 28.2744 41.0863 28.2833 41.4397 28.431C41.636 28.5232 41.8122 28.6539 41.9581 28.8156C42.104 28.9772 42.2167 29.1666 42.2896 29.3726C42.3626 29.5787 42.3944 29.7974 42.3832 30.016C42.3719 30.2346 42.3179 30.4487 42.2241 30.646C39.9766 35.1293 36.1951 38.6338 31.5836 40.507C26.9721 42.3802 21.8447 42.4945 17.1561 40.8286Z" fill="white"/>
<path d="M42.9104 23.8028C42.5454 23.802 42.1844 23.7252 41.8498 23.5774C41.5153 23.4295 41.2144 23.2136 40.9658 22.9432L35.6057 17.1906C35.2965 16.8382 35.0828 16.4107 34.9855 15.9498C34.8881 15.489 34.9105 15.0105 35.0504 14.561C35.1903 14.1115 35.4429 13.7063 35.7837 13.385C36.1245 13.0636 36.5417 12.8371 36.9948 12.7274L44.61 10.8925C45.0739 10.7636 45.5636 10.7634 46.0277 10.8919C46.4917 11.0204 46.913 11.2729 47.2473 11.6229C47.5817 11.973 47.8167 12.4076 47.9277 12.8811C48.0387 13.3547 48.0216 13.8497 47.8783 14.3143L45.6395 21.9018C45.4861 22.3725 45.2088 22.7921 44.8374 23.1154C44.4659 23.4386 44.0145 23.6534 43.5314 23.7367C43.3276 23.7824 43.1192 23.8046 42.9104 23.8028ZM38.6289 15.6698L42.6163 19.9512L44.2505 14.3143L38.6289 15.6698Z" fill="#AC8DF8"/>
<path d="M6.40329 13.5868C6.20704 13.4946 6.03086 13.3638 5.88497 13.2022C5.73907 13.0405 5.62637 12.8512 5.5534 12.6451C5.48042 12.439 5.44864 12.2204 5.45988 12.0018C5.47112 11.7832 5.52517 11.569 5.61889 11.3717C7.34846 7.91756 9.99918 5.02193 13.2711 3.01247C16.5431 1.003 20.3057 -0.0401011 24.1333 0.00117942C27.9609 0.0424599 31.7007 1.16647 34.9296 3.24605C38.1585 5.32563 40.7475 8.27777 42.4039 11.7685L39.5931 13.1405C38.1866 10.1731 35.9853 7.66447 33.2395 5.89964C30.4936 4.13481 27.3134 3.18461 24.0603 3.15706C20.8071 3.12951 17.6116 4.02571 14.8369 5.74378C12.0622 7.46186 9.81973 9.9329 8.36428 12.876C8.18549 13.222 7.88446 13.4873 7.52109 13.619C7.15772 13.7507 6.75866 13.7392 6.40329 13.5868Z" fill="white"/>
</svg>
