<svg width="45" height="45" viewBox="0 0 45 45" fill="none" xmlns="http://www.w3.org/2000/svg">
<path d="M38.25 0H6.75C3.0285 0 0 3.0285 0 6.75V38.25C0 41.9715 3.0285 45 6.75 45H38.25C41.9715 45 45 41.9715 45 38.25V6.75C45 3.0285 41.9715 0 38.25 0ZM41.625 38.25C41.625 39.492 39.4897 41.625 38.25 41.625H6.75C5.51025 41.625 3.375 39.492 3.375 38.25V6.75C3.375 5.508 5.51025 3.375 6.75 3.375H38.25C39.4897 3.375 41.625 5.508 41.625 6.75V38.25Z" fill="white"/>
<path d="M10.575 6.75H7.42497C7.05218 6.75 6.74997 7.05221 6.74997 7.425V10.575C6.74997 10.9478 7.05218 11.25 7.42497 11.25H10.575C10.9478 11.25 11.25 10.9478 11.25 10.575V7.425C11.25 7.05221 10.9478 6.75 10.575 6.75Z" fill="white"/>
<path d="M17.325 6.75H14.175C13.8022 6.75 13.5 7.05221 13.5 7.425V10.575C13.5 10.9478 13.8022 11.25 14.175 11.25H17.325C17.6978 11.25 18 10.9478 18 10.575V7.425C18 7.05221 17.6978 6.75 17.325 6.75Z" fill="white"/>
<path d="M27.918 20.828H19.546V18.366C19.544 16.672 20.922 15.294 22.614 15.292C24.308 15.292 25.686 16.67 25.688 18.362C25.69 18.54 25.762 18.704 25.88 18.82C25.998 18.938 26.158 19.01 26.338 19.01H26.832C27.192 19.01 27.482 18.72 27.482 18.362H27.48C27.478 15.68 25.296 13.498 22.614 13.5C19.932 13.502 17.752 15.684 17.752 18.366L17.754 20.828H17.594H17.418C16.496 20.828 15.748 21.578 15.75 22.5V29.83C15.75 30.752 16.5 31.5 17.422 31.5L27.818 31.494C28.74 31.494 29.488 30.746 29.486 29.824V22.492C29.486 21.606 28.792 20.882 27.918 20.828Z" fill="#AC8DF8"/>
</svg>
