<svg width="50" height="39" viewBox="0 0 50 39" fill="none" xmlns="http://www.w3.org/2000/svg">
<path d="M14.9611 16.125C14.2158 15.3739 12.9895 15.3562 12.2245 16.0903L9.80721 18.4038C9.75614 18.4794 9.62649 18.5947 9.47776 18.7199C9.93517 11.4879 15.3961 5.55316 22.7849 4.44684C28.4916 3.59145 34.2056 5.87304 37.6971 10.4009C38.0799 10.8956 38.7057 11.1455 39.3321 11.0511C39.6127 11.0092 39.8821 10.8973 40.1105 10.7274C40.6139 10.3513 40.8682 9.7369 40.7739 9.12197C40.7307 8.84456 40.6162 8.58039 40.4433 8.35593C36.1891 2.83809 29.224 0.0579372 22.2663 1.10029C13.1837 2.46141 6.47342 9.80198 6.01263 18.7188C5.96324 18.6664 5.92115 18.6173 5.90038 18.5787L3.32146 15.9783C2.57557 15.2283 1.34925 15.2112 0.584835 15.943C-0.181264 16.6765 -0.196418 17.881 0.549476 18.6344L6.29382 24.4263C6.68444 24.8206 7.20752 25.0126 7.72667 24.9999C8.19756 24.9883 8.66508 24.8096 9.02989 24.46L14.9252 18.8153C15.6913 18.0829 15.707 16.8778 14.9611 16.125ZM7.79346 21.2667C7.81647 21.2662 7.83892 21.2645 7.86137 21.2623C7.84005 21.2882 7.81816 21.2882 7.79346 21.2667Z" fill="#AC8DF8"/>
<path d="M49.4502 21.1911L43.707 15.3986C43.3163 15.0053 42.7927 14.8129 42.2736 14.825C41.8027 14.836 41.334 15.0164 40.9703 15.3649L35.0739 21.0096C34.3084 21.7437 34.2921 22.9487 35.0385 23.701C35.7844 24.451 37.0102 24.4703 37.7746 23.7357L40.1936 21.4216C40.2407 21.3515 40.3563 21.2468 40.4916 21.1326C39.982 28.311 34.539 34.1868 27.1907 35.2881C21.4834 36.1424 15.7693 33.8614 12.279 29.3341C11.8962 28.8388 11.2704 28.5895 10.6446 28.6833C10.364 28.7247 10.094 28.8366 9.8656 29.007C9.3616 29.3826 9.10736 29.9981 9.20277 30.613C9.24599 30.8893 9.36048 31.154 9.53278 31.3785C13.7876 36.8963 20.7521 39.6765 27.7104 38.6336C36.7705 37.2758 43.4696 29.9661 43.9579 21.078C44.0218 21.1414 44.0751 21.2021 44.0998 21.2479L46.6788 23.8482C47.4252 24.5983 48.651 24.6154 49.4143 23.8835C50.1815 23.1495 50.1967 21.945 49.4502 21.1911Z" fill="white"/>
</svg>
