<svg width="40" height="41" viewBox="0 0 40 41" fill="none" xmlns="http://www.w3.org/2000/svg">
<path d="M39.8324 8.65346C39.8533 8.60285 39.8636 8.55003 39.8804 8.49765C39.908 8.41375 39.9391 8.3303 39.9564 8.24196C39.9813 8.11678 39.9916 7.98982 39.9947 7.86286C39.9951 7.84511 40 7.82913 40 7.81137C40 7.81093 40 7.81048 40 7.81004C40 7.66355 39.9844 7.51706 39.9556 7.37323C39.9462 7.32618 39.928 7.28312 39.9151 7.2374C39.8898 7.14285 39.8662 7.04785 39.828 6.95685C39.8084 6.9098 39.7804 6.86807 39.7578 6.82279C39.7151 6.73845 39.6756 6.65322 39.6222 6.57376C39.5942 6.53159 39.5573 6.49652 39.5262 6.45657C39.4693 6.38288 39.4164 6.30742 39.3489 6.2395C39.3311 6.22174 39.3098 6.2102 39.292 6.19289L34.6293 1.53632C33.7622 0.669371 32.3551 0.669371 31.4871 1.53632C30.6191 2.40327 30.6191 3.80867 31.4871 4.67473L32.4053 5.59184H2.22222C0.994667 5.59184 0 6.5853 0 7.81137C0 9.03744 0.994667 10.0309 2.22222 10.0309H32.4102L31.4929 10.9471C30.6244 11.8141 30.6244 13.2195 31.4924 14.0864C32.3604 14.9534 33.7676 14.9525 34.6347 14.0864L39.3311 9.39567C39.4436 9.28558 39.544 9.16439 39.6311 9.03344C39.644 9.01302 39.6529 8.99083 39.6653 8.96996C39.728 8.86875 39.7867 8.76488 39.8324 8.65346Z" fill="#AC8DF8"/>
<path d="M39.8324 34.7671C39.8533 34.7161 39.8636 34.6632 39.8804 34.6109C39.908 34.527 39.9391 34.4435 39.9564 34.3552C39.9813 34.2304 39.9916 34.103 39.9947 33.9761C39.9951 33.9588 40 33.9428 40 33.9255C40 33.9246 40 33.9246 40 33.9237C40 33.7772 39.9844 33.6312 39.9556 33.4869C39.9462 33.4403 39.928 33.3972 39.9151 33.3515C39.8898 33.2565 39.8662 33.1615 39.828 33.0705C39.8084 33.0239 39.7804 32.9822 39.7578 32.9364C39.7151 32.8521 39.6756 32.7669 39.6222 32.687C39.5942 32.6452 39.5573 32.6097 39.5262 32.5698C39.4693 32.4961 39.4164 32.4206 39.3489 32.3531C39.3311 32.3349 39.3098 32.3238 39.292 32.3065L34.6293 27.65C33.7622 26.783 32.3551 26.783 31.4871 27.65C30.6191 28.5169 30.6191 29.9223 31.4871 30.7884L32.4053 31.7055H2.22222C0.994667 31.7055 0 32.699 0 33.925C0 35.1511 0.994667 36.1445 2.22222 36.1445H32.4102L31.4929 37.0608C30.6244 37.9277 30.6244 39.3331 31.4924 40.2001C32.3604 41.067 33.7676 41.0661 34.6347 40.2001L39.3311 35.5089C39.4436 35.3988 39.544 35.278 39.6311 35.1466C39.644 35.1267 39.6529 35.104 39.6653 35.0832C39.728 34.9824 39.7867 34.8781 39.8324 34.7671Z" fill="white"/>
</svg>
