<svg width="48" height="48" viewBox="0 0 48 48" fill="none" xmlns="http://www.w3.org/2000/svg">
<path d="M27.5971 48H20.8436C19.9424 48 19.2116 47.2693 19.2116 46.368V42.6004C17.4681 42.1327 15.8098 41.4219 14.2567 40.4776L11.945 42.7885C11.639 43.0945 11.2239 43.2666 10.7912 43.2666C10.3585 43.2666 9.94329 43.0945 9.63729 42.7885L4.86247 38.0129C4.22498 37.3754 4.22498 36.3427 4.86247 35.7052L7.32718 33.2397C6.58689 31.8945 6.01634 30.4785 5.62109 29.0083H1.63198C0.730726 29.0083 0 28.2776 0 27.3763V20.6237C0 19.7224 0.730726 18.9917 1.63198 18.9917H5.62029C6.08805 17.2482 6.79886 15.5899 7.74314 14.036L4.86247 11.1545C4.22498 10.517 4.22498 9.48429 4.86247 8.8468L9.63729 4.07119C10.2493 3.45919 11.333 3.45919 11.945 4.07119L14.9803 7.10645C16.3254 6.36696 17.7414 5.7956 19.2116 5.40036V1.63198C19.2116 0.730726 19.9424 0 20.8436 0H27.5971C28.4983 0 29.229 0.730726 29.229 1.63198V5.40036C30.7 5.7956 32.1153 6.36696 33.4604 7.10645L36.4957 4.07119C37.1076 3.45919 38.1914 3.45919 38.8034 4.07119L43.579 8.8468C44.2165 9.48429 44.2165 10.517 43.579 11.1545L40.9804 13.7531C41.6044 14.8966 42.4785 16.778 42.9256 18.9917H46.368C47.2693 18.9917 48 19.7224 48 20.6237V27.3763C48 28.2776 47.2693 29.0083 46.368 29.0083H42.8204C42.4251 30.4793 41.8538 31.8953 41.1143 33.2397L43.579 35.7052C44.2165 36.3427 44.2165 37.3754 43.579 38.0129L38.8034 42.7885C38.1659 43.426 37.1331 43.426 36.4957 42.7885L34.1839 40.4776C32.6309 41.4219 30.9726 42.1327 29.229 42.6004V46.368C29.229 47.2693 28.4983 48 27.5971 48ZM22.4756 44.736H25.9651V41.3031C25.9651 40.5214 26.5189 39.8497 27.2863 39.7006C29.5087 39.2703 31.5846 38.3786 33.4556 37.0527C34.1043 36.5921 34.9904 36.667 35.553 37.2304L37.6495 39.3269L40.1174 36.859L37.9093 34.6509C37.3666 34.1082 37.275 33.2612 37.6894 32.6157C38.789 30.9025 39.5397 29.0354 39.9214 27.0655C40.0704 26.2982 40.7421 25.7443 41.5239 25.7443H44.736V22.2557H41.5239C40.6848 22.2557 39.9827 21.6198 39.8999 20.7846C39.5604 17.3565 37.6017 14.448 37.5818 14.4193C37.1403 13.7714 37.22 12.8981 37.7746 12.3434L40.1174 10.0007L37.6495 7.53277L34.8716 10.3114C34.3306 10.8541 33.4835 10.9457 32.8364 10.5314C31.1232 9.4317 29.2561 8.68106 27.2863 8.29936C26.5189 8.15034 25.9651 7.47858 25.9651 6.69686V3.26396H22.4756V6.69686C22.4756 7.47858 21.9218 8.15034 21.1544 8.29936C19.1853 8.68106 17.3183 9.4317 15.605 10.5314C14.9588 10.9457 14.1117 10.8541 13.5698 10.3114L10.7912 7.53277L8.32406 10.0007L10.9904 12.6678C11.553 13.2304 11.6279 14.1165 11.1681 14.7651C9.84209 16.6362 8.9504 18.712 8.52009 20.9345C8.37107 21.7018 7.69932 22.2557 6.91759 22.2557H3.26396V25.7443H6.91759C7.69932 25.7443 8.37107 26.2982 8.52009 27.0655C8.90179 29.0346 9.65243 30.9025 10.7513 32.6165C11.1657 33.262 11.074 34.1082 10.5314 34.6509L8.32406 36.859L10.7912 39.3269L12.8877 37.2304C13.4495 36.667 14.3364 36.5921 14.9851 37.0527C16.8561 38.3786 18.9311 39.2695 21.1544 39.7006C21.9218 39.8497 22.4756 40.5214 22.4756 41.3031V44.736Z" fill="white"/>
<path d="M15.4513 29L16.1531 26.8441H19.5646L20.2663 29H22.4084L19.1491 19.5455H16.5732L13.3093 29H15.4513ZM16.6609 25.2837L17.8242 21.706H17.8981L19.0614 25.2837H16.6609ZM23.5463 29H25.5453V25.9347H27.2257C29.4 25.9347 30.665 24.6374 30.665 22.7493C30.665 20.8704 29.4231 19.5455 27.2765 19.5455H23.5463V29ZM25.5453 24.3327V21.1797H26.8933C28.0474 21.1797 28.606 21.8075 28.606 22.7493C28.606 23.6864 28.0474 24.3327 26.9025 24.3327H25.5453ZM33.9623 19.5455H31.9633V29H33.9623V19.5455Z" fill="#AC8DF8"/>
</svg>
