<svg width="21" height="15" viewBox="0 0 21 15" fill="none" xmlns="http://www.w3.org/2000/svg">
<path fill-rule="evenodd" clip-rule="evenodd" d="M5.10326 0.195727C8.43898 -0.0652425 11.7899 -0.0652425 15.1256 0.195727L17.3663 0.371028C18.6144 0.468668 19.6354 1.40407 19.8417 2.63884C20.3579 5.72831 20.3579 8.88211 19.8417 11.9716C19.6354 13.2063 18.6144 14.1417 17.3663 14.2394L15.1256 14.4147C11.7899 14.6756 8.43898 14.6756 5.10326 14.4147L2.86256 14.2394C1.61449 14.1417 0.593467 13.2063 0.387157 11.9716C-0.129053 8.88211 -0.129053 5.72831 0.387157 2.63884C0.593467 1.40407 1.61449 0.468668 2.86256 0.371028L5.10326 0.195727ZM8.11438 9.77531V4.83507C8.11438 4.60188 8.36878 4.45784 8.56868 4.57782L12.6857 7.04801C12.8799 7.16451 12.8799 7.44591 12.6857 7.56241L8.56868 10.0326C8.36878 10.1526 8.11438 10.0085 8.11438 9.77531Z" fill="white"/>
</svg>
